<?xml version="1.0" standalone="no"?>
<!DOCTYPE svg PUBLIC "-//W3C//DTD SVG 1.1//EN"
"http://www.w3.org/Graphics/SVG/1.1/DTD/svg11.dtd">

<svg width="599" height="464" view_box="0 0 599 464"
xmlns="http://www.w3.org/2000/svg"
xmlns:link="http://www.w3.org/1999/xlink">\n\n<desc>Généré par Mocodo 2.3.7 le Tue, 03 Nov 2020 23:21:46</desc>

<rect id="frame" x="0" y="0" width="599" height="464" fill="#f7f7f7" stroke="none" stroke-width="0"/>

<!-- Association is right answer -->
<line x1="310" y1="152" x2="416" y2="34" stroke="#8073ac" stroke-width="2"/>
<text x="371" y="100.124319442" fill="#b35806" font-family="Verdana" font-size="12">1,1</text>
<line x1="528" y1="152" x2="416" y2="34" stroke="#8073ac" stroke-width="2"/>
<text x="477.782998684" y="93" fill="#b35806" font-family="Verdana" font-size="12">0,1</text>
<g id="association-is right answer">
	<path d="M 454 9 a 14 14 90 0 1 14 14 V 34 h -104 V 23 a 14 14 90 0 1 14 -14" fill="#b2abd2" stroke="#b2abd2" stroke-width="0"/>
	<path d="M 468 34.0 v 11 a 14 14 90 0 1 -14 14 H 378 a 14 14 90 0 1 -14 -14 V 34.0 H 104" fill="#d8daeb" stroke="#d8daeb" stroke-width="0"/>
	<rect x="364" y="9" width="104" height="50" fill="none" rx="14" stroke="#8073ac" stroke-width="2"/>
	<line x1="364" y1="34" x2="468" y2="34" stroke="#8073ac" stroke-width="1"/>
	<text x="371" y="26.7" fill="#000000" font-family="Verdana" font-size="12">is right answer</text>
</g>

<!-- Association is author -->
<line x1="67" y1="379" x2="191" y2="379" stroke="#8073ac" stroke-width="2"/>
<text x="130" y="396.0" fill="#b35806" font-family="Verdana" font-size="12">0,N</text>
<line x1="310" y1="379" x2="191" y2="379" stroke="#8073ac" stroke-width="2"/>
<text x="231" y="396.0" fill="#b35806" font-family="Verdana" font-size="12">1,1</text>
<g id="association-is author">
	<path d="M 211 354 a 14 14 90 0 1 14 14 V 379 h -68 V 368 a 14 14 90 0 1 14 -14" fill="#b2abd2" stroke="#b2abd2" stroke-width="0"/>
	<path d="M 225 379.0 v 11 a 14 14 90 0 1 -14 14 H 171 a 14 14 90 0 1 -14 -14 V 379.0 H 68" fill="#d8daeb" stroke="#d8daeb" stroke-width="0"/>
	<rect x="157" y="354" width="68" height="50" fill="none" rx="14" stroke="#8073ac" stroke-width="2"/>
	<line x1="157" y1="379" x2="225" y2="379" stroke="#8073ac" stroke-width="1"/>
	<text x="164" y="371.7" fill="#000000" font-family="Verdana" font-size="12">is author</text>
</g>

<!-- Association has4 -->
<line x1="310" y1="379" x2="416" y2="379" stroke="#8073ac" stroke-width="2"/>
<text x="368" y="396.0" fill="#b35806" font-family="Verdana" font-size="12">0,N</text>
<line x1="528" y1="379" x2="416" y2="379" stroke="#8073ac" stroke-width="2"/>
<text x="463" y="396.0" fill="#b35806" font-family="Verdana" font-size="12">0,N</text>
<g id="association-has4">
	<path d="M 420 354 a 14 14 90 0 1 14 14 V 379 h -36 V 368 a 14 14 90 0 1 14 -14" fill="#b2abd2" stroke="#b2abd2" stroke-width="0"/>
	<path d="M 434 379.0 v 11 a 14 14 90 0 1 -14 14 H 412 a 14 14 90 0 1 -14 -14 V 379.0 H 36" fill="#d8daeb" stroke="#d8daeb" stroke-width="0"/>
	<rect x="398" y="354" width="36" height="50" fill="none" rx="14" stroke="#8073ac" stroke-width="2"/>
	<line x1="398" y1="379" x2="434" y2="379" stroke="#8073ac" stroke-width="1"/>
	<text x="405" y="371.7" fill="#000000" font-family="Verdana" font-size="12">has</text>
</g>

<!-- Association has1 -->
<line x1="67" y1="152" x2="191" y2="152" stroke="#8073ac" stroke-width="2"/>
<text x="111" y="169.0" fill="#b35806" font-family="Verdana" font-size="12">0,N</text>
<line x1="310" y1="152" x2="191" y2="152" stroke="#8073ac" stroke-width="2"/>
<text x="228" y="169.0" fill="#b35806" font-family="Verdana" font-size="12">1,1</text>
<g id="association-has1">
	<path d="M 195 127 a 14 14 90 0 1 14 14 V 152 h -36 V 141 a 14 14 90 0 1 14 -14" fill="#b2abd2" stroke="#b2abd2" stroke-width="0"/>
	<path d="M 209 152.0 v 11 a 14 14 90 0 1 -14 14 H 187 a 14 14 90 0 1 -14 -14 V 152.0 H 36" fill="#d8daeb" stroke="#d8daeb" stroke-width="0"/>
	<rect x="173" y="127" width="36" height="50" fill="none" rx="14" stroke="#8073ac" stroke-width="2"/>
	<line x1="173" y1="152" x2="209" y2="152" stroke="#8073ac" stroke-width="1"/>
	<text x="180" y="144.7" fill="#000000" font-family="Verdana" font-size="12">has</text>
</g>

<!-- Association has2 -->
<line x1="310" y1="152" x2="416" y2="152" stroke="#8073ac" stroke-width="2"/>
<text x="371" y="169.0" fill="#b35806" font-family="Verdana" font-size="12">0,N</text>
<line x1="528" y1="152" x2="416" y2="152" stroke="#8073ac" stroke-width="2"/>
<text x="440" y="169.0" fill="#b35806" font-family="Verdana" font-size="12">1,1</text>
<g id="association-has2">
	<path d="M 420 127 a 14 14 90 0 1 14 14 V 152 h -36 V 141 a 14 14 90 0 1 14 -14" fill="#b2abd2" stroke="#b2abd2" stroke-width="0"/>
	<path d="M 434 152.0 v 11 a 14 14 90 0 1 -14 14 H 412 a 14 14 90 0 1 -14 -14 V 152.0 H 36" fill="#d8daeb" stroke="#d8daeb" stroke-width="0"/>
	<rect x="398" y="127" width="36" height="50" fill="none" rx="14" stroke="#8073ac" stroke-width="2"/>
	<line x1="398" y1="152" x2="434" y2="152" stroke="#8073ac" stroke-width="1"/>
	<text x="405" y="144.7" fill="#000000" font-family="Verdana" font-size="12">has</text>
</g>

<!-- Association has3 -->
<line x1="310" y1="152" x2="310" y2="270" stroke="#8073ac" stroke-width="2"/>
<text x="315.0" y="237" fill="#b35806" font-family="Verdana" font-size="12">1,1</text>
<line x1="310" y1="379" x2="310" y2="270" stroke="#8073ac" stroke-width="2"/>
<text x="315.0" y="312" fill="#b35806" font-family="Verdana" font-size="12">0,N</text>
<g id="association-has3">
	<path d="M 314 245 a 14 14 90 0 1 14 14 V 270 h -36 V 259 a 14 14 90 0 1 14 -14" fill="#b2abd2" stroke="#b2abd2" stroke-width="0"/>
	<path d="M 328 270.0 v 11 a 14 14 90 0 1 -14 14 H 306 a 14 14 90 0 1 -14 -14 V 270.0 H 36" fill="#d8daeb" stroke="#d8daeb" stroke-width="0"/>
	<rect x="292" y="245" width="36" height="50" fill="none" rx="14" stroke="#8073ac" stroke-width="2"/>
	<line x1="292" y1="270" x2="328" y2="270" stroke="#8073ac" stroke-width="1"/>
	<text x="299" y="262.7" fill="#000000" font-family="Verdana" font-size="12">has</text>
</g>

<!-- Entity LEVEL -->
<g id="entity-LEVEL">
	<g id="frame-LEVEL">
		<rect x="28" y="101" width="78" height="25" fill="#fdb863" stroke="#fdb863" stroke-width="0"/>
		<rect x="28" y="126.0" width="78" height="77" fill="#fee0b6" stroke="#fee0b6" stroke-width="0"/>
		<rect x="28" y="101" width="78" height="102" fill="none" stroke="#e08214" stroke-width="2"/>
		<line x1="28" y1="126" x2="106" y2="126" stroke="#e08214" stroke-width="1"/>
	</g>
	<text x="48" y="118.7" fill="#000000" font-family="Verdana" font-size="12">LEVEL</text>
	<text x="33" y="143.7" fill="#000000" font-family="Verdana" font-size="12">level name</text>
	<line x1="33" y1="146" x2="100" y2="146" stroke="#000000" stroke-width="1"/>
	<text x="33" y="160.8" fill="#000000" font-family="Verdana" font-size="12">status</text>
	<text x="33" y="177.8" fill="#000000" font-family="Verdana" font-size="12">created at</text>
	<text x="33" y="194.8" fill="#000000" font-family="Verdana" font-size="12">updated at</text>
</g>

<!-- Entity QUESTION -->
<g id="entity-QUESTION">
	<g id="frame-QUESTION">
		<rect x="254" y="84" width="112" height="25" fill="#fdb863" stroke="#fdb863" stroke-width="0"/>
		<rect x="254" y="109.0" width="112" height="111" fill="#fee0b6" stroke="#fee0b6" stroke-width="0"/>
		<rect x="254" y="84" width="112" height="136" fill="none" stroke="#e08214" stroke-width="2"/>
		<line x1="254" y1="109" x2="366" y2="109" stroke="#e08214" stroke-width="1"/>
	</g>
	<text x="277" y="101.7" fill="#000000" font-family="Verdana" font-size="12">QUESTION</text>
	<text x="259" y="126.7" fill="#000000" font-family="Verdana" font-size="12">question content</text>
	<line x1="259" y1="129" x2="361" y2="129" stroke="#000000" stroke-width="1"/>
	<text x="259" y="143.7" fill="#000000" font-family="Verdana" font-size="12">anecdote</text>
	<text x="259" y="160.8" fill="#000000" font-family="Verdana" font-size="12">wiki</text>
	<text x="259" y="177.8" fill="#000000" font-family="Verdana" font-size="12">status</text>
	<text x="259" y="194.8" fill="#000000" font-family="Verdana" font-size="12">created at</text>
	<text x="259" y="211.8" fill="#000000" font-family="Verdana" font-size="12">updated at</text>
</g>

<!-- Entity QUIZ -->
<g id="entity-QUIZ">
	<g id="frame-QUIZ">
		<rect x="257" y="320" width="106" height="25" fill="#fdb863" stroke="#fdb863" stroke-width="0"/>
		<rect x="257" y="345.0" width="106" height="93" fill="#fee0b6" stroke="#fee0b6" stroke-width="0"/>
		<rect x="257" y="320" width="106" height="118" fill="none" stroke="#e08214" stroke-width="2"/>
		<line x1="257" y1="345" x2="363" y2="345" stroke="#e08214" stroke-width="1"/>
	</g>
	<text x="293" y="337.7" fill="#000000" font-family="Verdana" font-size="12">QUIZ</text>
	<text x="262" y="362.7" fill="#000000" font-family="Verdana" font-size="12">title</text>
	<line x1="262" y1="365" x2="286" y2="365" stroke="#000000" stroke-width="1"/>
	<text x="262" y="379.8" fill="#000000" font-family="Verdana" font-size="12">quiz description</text>
	<text x="262" y="396.8" fill="#000000" font-family="Verdana" font-size="12">status</text>
	<text x="262" y="413.8" fill="#000000" font-family="Verdana" font-size="12">created at</text>
	<text x="262" y="430.8" fill="#000000" font-family="Verdana" font-size="12">updated at</text>
</g>

<!-- Entity TAG -->
<g id="entity-TAG">
	<g id="frame-TAG">
		<rect x="490" y="328" width="76" height="25" fill="#fdb863" stroke="#fdb863" stroke-width="0"/>
		<rect x="490" y="353.0" width="76" height="77" fill="#fee0b6" stroke="#fee0b6" stroke-width="0"/>
		<rect x="490" y="328" width="76" height="102" fill="none" stroke="#e08214" stroke-width="2"/>
		<line x1="490" y1="353" x2="566" y2="353" stroke="#e08214" stroke-width="1"/>
	</g>
	<text x="515" y="345.7" fill="#000000" font-family="Verdana" font-size="12">TAG</text>
	<text x="495" y="370.7" fill="#000000" font-family="Verdana" font-size="12">tag name</text>
	<line x1="495" y1="373" x2="553" y2="373" stroke="#000000" stroke-width="1"/>
	<text x="495" y="387.8" fill="#000000" font-family="Verdana" font-size="12">status</text>
	<text x="495" y="404.8" fill="#000000" font-family="Verdana" font-size="12">created at</text>
	<text x="495" y="421.8" fill="#000000" font-family="Verdana" font-size="12">updated at</text>
</g>

<!-- Entity ANSWER -->
<g id="entity-ANSWER">
	<g id="frame-ANSWER">
		<rect x="466" y="101" width="124" height="25" fill="#fdb863" stroke="#fdb863" stroke-width="0"/>
		<rect x="466" y="126.0" width="124" height="77" fill="#fee0b6" stroke="#fee0b6" stroke-width="0"/>
		<rect x="466" y="101" width="124" height="102" fill="none" stroke="#e08214" stroke-width="2"/>
		<line x1="466" y1="126" x2="590" y2="126" stroke="#e08214" stroke-width="1"/>
	</g>
	<text x="501" y="118.7" fill="#000000" font-family="Verdana" font-size="12">ANSWER</text>
	<text x="471" y="143.7" fill="#000000" font-family="Verdana" font-size="12">answer description</text>
	<line x1="471" y1="146" x2="585" y2="146" stroke="#000000" stroke-width="1"/>
	<text x="471" y="160.8" fill="#000000" font-family="Verdana" font-size="12">status</text>
	<text x="471" y="177.8" fill="#000000" font-family="Verdana" font-size="12">created at</text>
	<text x="471" y="194.8" fill="#000000" font-family="Verdana" font-size="12">updated at</text>
</g>

<!-- Entity APP_USER -->
<g id="entity-APP_USER">
	<g id="frame-APP_USER">
		<rect x="9" y="303" width="116" height="25" fill="#fdb863" stroke="#fdb863" stroke-width="0"/>
		<rect x="9" y="328.0" width="116" height="127" fill="#fee0b6" stroke="#fee0b6" stroke-width="0"/>
		<rect x="9" y="303" width="116" height="152" fill="none" stroke="#e08214" stroke-width="2"/>
		<line x1="9" y1="328" x2="125" y2="328" stroke="#e08214" stroke-width="1"/>
	</g>
	<text x="35" y="320.7" fill="#000000" font-family="Verdana" font-size="12">APP_USER</text>
	<text x="14" y="345.7" fill="#000000" font-family="Verdana" font-size="12">first name</text>
	<line x1="14" y1="348" x2="76" y2="348" stroke="#000000" stroke-width="1"/>
	<text x="14" y="362.7" fill="#000000" font-family="Verdana" font-size="12">last name</text>
	<text x="14" y="379.8" fill="#000000" font-family="Verdana" font-size="12">email</text>
	<text x="14" y="396.8" fill="#000000" font-family="Verdana" font-size="12">hashed password</text>
	<text x="14" y="413.8" fill="#000000" font-family="Verdana" font-size="12">status</text>
	<text x="14" y="430.8" fill="#000000" font-family="Verdana" font-size="12">created at</text>
	<text x="14" y="447.8" fill="#000000" font-family="Verdana" font-size="12">updated at</text>
</g>
</svg>